<svg xmlns="http://www.w3.org/2000/svg" width="900" height="260" viewBox="0 0 900 260" role="img" aria-label="Nhat Minh, AI Engineer" font-family="-apple-system,BlinkMacSystemFont,'Segoe UI',Roboto,Helvetica,Arial,sans-serif"><title>Nhat Minh, AI Engineer</title><desc>Open to opportunities as an AI Engineer. LLM &amp; RAG, computer vision, ML on small devices</desc><rect x="0.5" y="0.5" width="899" height="259" rx="18" fill="#fbfcfd" stroke="#d3dde4"/><style>.in{animation:in 20s linear infinite both;animation-delay:var(--d)}.draw{stroke-dasharray:1;animation:draw 20s linear infinite both;animation-delay:var(--d)}.tok{animation:in 20s linear infinite both,fresh 20s linear infinite both;animation-delay:var(--d)}.scn{animation:scn 20s linear infinite both;animation-delay:var(--s)}.ring{transform-box:fill-box;transform-origin:center;animation:ring 2.4s ease-out infinite}.blink{animation:blink 1s steps(1) infinite}.pulse{animation:pulse 2.6s ease-in-out infinite}@keyframes in{0%{opacity:0}1.5%{opacity:1}49%{opacity:1}50%,100%{opacity:0}}@keyframes draw{0%{stroke-dashoffset:1;opacity:1}6%{stroke-dashoffset:0}49%{stroke-dashoffset:0;opacity:1}50%,100%{stroke-dashoffset:1;opacity:0}}@keyframes scn{0%{opacity:0}1%{opacity:1}47%{opacity:1}48%,100%{opacity:0}}@keyframes fresh{0%,1.5%{fill:#d99a00}2.5%,100%{fill:#101c26}}@keyframes ring{0%{transform:scale(1);opacity:.7}100%{transform:scale(3.4);opacity:0}}@keyframes blink{50%{opacity:0}}@keyframes pulse{50%{opacity:.3}}@media (prefers-reduced-motion: reduce){.in,.draw,.tok,.scn,.ring,.blink,.pulse{animation:none}.scn-b{display:none}}</style><circle class="dot" cx="520" cy="209.1" r="2.6" fill="#566573" fill-opacity="0.45"/><circle class="dot" cx="585.8" cy="210.8" r="2.6" fill="#566573" fill-opacity="0.45"/><circle class="dot" cx="486.7" cy="201.8" r="2.6" fill="#566573" fill-opacity="0.45"/><circle class="dot" cx="541.5" cy="100.7" r="2.6" fill="#566573" fill-opacity="0.45"/><circle class="dot" cx="490.1" cy="218" r="2.6" fill="#566573" fill-opacity="0.45"/><circle class="dot" cx="649.2" cy="160.9" r="2.6" fill="#566573" fill-opacity="0.45"/><circle class="dot" cx="557.5" cy="163" r="2.6" fill="#566573" fill-opacity="0.45"/><circle class="dot" cx="584.5" cy="192" r="2.6" fill="#566573" fill-opacity="0.45"/><circle class="dot" cx="615.2" cy="146.7" r="2.6" fill="#566573" fill-opacity="0.45"/><circle class="dot" cx="561.4" cy="201.4" r="2.6" fill="#566573" fill-opacity="0.45"/><circle class="dot" cx="494.2" cy="188.4" r="2.6" fill="#566573" fill-opacity="0.45"/><circle class="dot" cx="624.8" cy="139.1" r="2.6" fill="#566573" fill-opacity="0.45"/><circle class="dot" cx="509.5" cy="217.7" r="2.6" fill="#566573" fill-opacity="0.45"/><circle class="dot" cx="499.5" cy="151.3" r="2.6" fill="#566573" fill-opacity="0.45"/><circle class="dot" cx="558.3" cy="107.6" r="2.6" fill="#566573" fill-opacity="0.45"/><circle class="dot" cx="498.1" cy="172.3" r="2.6" fill="#566573" fill-opacity="0.45"/><circle class="dot" cx="614" cy="104.7" r="2.6" fill="#566573" fill-opacity="0.45"/><circle class="dot" cx="524.8" cy="168.4" r="2.6" fill="#566573" fill-opacity="0.45"/><circle class="dot" cx="540.1" cy="133.4" r="2.6" fill="#566573" fill-opacity="0.45"/><circle class="dot" cx="568.2" cy="183.7" r="2.6" fill="#566573" fill-opacity="0.45"/><circle class="dot" cx="532.5" cy="113.9" r="2.6" fill="#566573" fill-opacity="0.45"/><circle class="dot" cx="631.8" cy="172.8" r="2.6" fill="#566573" fill-opacity="0.45"/><circle class="dot" cx="544.8" cy="219.5" r="2.6" fill="#566573" fill-opacity="0.45"/><circle class="dot" cx="563.3" cy="116.4" r="2.6" fill="#566573" fill-opacity="0.45"/><circle class="dot" cx="581.5" cy="156.1" r="2.6" fill="#566573" fill-opacity="0.45"/><circle class="dot" cx="508.8" cy="148.7" r="2.6" fill="#566573" fill-opacity="0.45"/><circle class="dot" cx="509.4" cy="94.3" r="2.6" fill="#566573" fill-opacity="0.45"/><circle class="dot" cx="599.7" cy="189.8" r="2.6" fill="#566573" fill-opacity="0.45"/><circle class="dot" cx="503.5" cy="162.4" r="2.6" fill="#566573" fill-opacity="0.45"/><circle class="dot" cx="608.6" cy="205.2" r="2.6" fill="#566573" fill-opacity="0.45"/><circle class="dot" cx="566.6" cy="154.7" r="2.6" fill="#566573" fill-opacity="0.45"/><circle class="dot" cx="616.3" cy="214.6" r="2.6" fill="#566573" fill-opacity="0.45"/><circle class="dot" cx="535.1" cy="205.5" r="2.6" fill="#566573" fill-opacity="0.45"/><circle class="dot" cx="514.5" cy="128.9" r="2.6" fill="#566573" fill-opacity="0.45"/><circle class="dot" cx="645.1" cy="184.1" r="2.6" fill="#566573" fill-opacity="0.45"/><circle class="dot" cx="529.7" cy="198.1" r="2.6" fill="#566573" fill-opacity="0.45"/><circle class="dot" cx="611.8" cy="120.5" r="2.6" fill="#566573" fill-opacity="0.45"/><circle class="dot" cx="551.5" cy="135.6" r="2.6" fill="#566573" fill-opacity="0.45"/><circle class="dot" cx="540" cy="119.9" r="2.6" fill="#566573" fill-opacity="0.45"/><circle class="dot" cx="631.3" cy="119.8" r="2.6" fill="#566573" fill-opacity="0.45"/><circle class="dot" cx="570.2" cy="136.4" r="2.6" fill="#566573" fill-opacity="0.45"/><circle class="dot" cx="495.7" cy="142.6" r="2.6" fill="#566573" fill-opacity="0.45"/><circle class="dot" cx="560" cy="188.6" r="2.6" fill="#566573" fill-opacity="0.45"/><circle class="dot" cx="629.6" cy="191.5" r="2.6" fill="#566573" fill-opacity="0.45"/><circle class="dot" cx="518.8" cy="180.4" r="2.6" fill="#566573" fill-opacity="0.45"/><circle class="dot" cx="581" cy="103.6" r="2.6" fill="#566573" fill-opacity="0.45"/><g class="scn scn-a" style="--s:0s"><g class="in" style="--d:0.3s"><rect x="470" y="34" width="216" height="28" rx="6" fill="#eef2f5" stroke="#d3dde4"/><text x="484" y="52.5" font-size="12" font-weight="400" fill="#101c26" text-anchor="start" font-family="ui-monospace,SFMono-Regular,'SF Mono',Menlo,Consolas,monospace">recommend a gift under $50</text></g><path class="draw" pathLength="1" style="--d:0.9s" d="M488 62 C488 118 540 108 540 141" fill="none" stroke="#2f55d4" stroke-width="1.5"/><g class="in" style="--d:1.6s"><circle class="ring" cx="540" cy="148" r="5" fill="none" stroke="#2f55d4" stroke-width="1.5"/><circle cx="540" cy="148" r="5" fill="#2f55d4"/></g><line class="hit-line draw" pathLength="1" style="--d:2s" x1="540" y1="148" x2="540.1" y2="133.4" stroke="#1f9d6a" stroke-width="1.5"/><circle class="in" style="--d:2.5s" cx="540.1" cy="133.4" r="4.4" fill="#1f9d6a"/><line class="hit-line draw" pathLength="1" style="--d:2.1s" x1="540" y1="148" x2="551.5" y2="135.6" stroke="#1f9d6a" stroke-width="1.5"/><circle class="in" style="--d:2.6s" cx="551.5" cy="135.6" r="4.4" fill="#1f9d6a"/><line class="hit-line draw" pathLength="1" style="--d:2.3s" x1="540" y1="148" x2="557.5" y2="163" stroke="#1f9d6a" stroke-width="1.5"/><circle class="in" style="--d:2.8s" cx="557.5" cy="163" r="4.4" fill="#1f9d6a"/><line class="hit-line draw" pathLength="1" style="--d:2.5s" x1="540" y1="148" x2="524.8" y2="168.4" stroke="#1f9d6a" stroke-width="1.5"/><circle class="in" style="--d:3s" cx="524.8" cy="168.4" r="4.4" fill="#1f9d6a"/><line class="draw" pathLength="1" style="--d:3.3s" x1="662" y1="156" x2="686" y2="156" stroke="#1f9d6a" stroke-width="1.5"/><g class="in" style="--d:3.4s"><rect x="686" y="86" width="180" height="140" rx="10" fill="#eef2f5" stroke="#d3dde4"/></g><text class="tok" style="--d:3.9s" x="698" y="112" font-size="12" fill="#101c26" font-family="monospace">Similar</text><text class="tok" style="--d:4.1s" x="755.6" y="112" font-size="12" fill="#101c26" font-family="monospace">buyers</text><text class="tok" style="--d:4.3s" x="806" y="112" font-size="12" fill="#101c26" font-family="monospace">picked</text><text class="tok" style="--d:4.5s" x="698" y="130" font-size="12" fill="#101c26" font-family="monospace">a</text><text class="tok" style="--d:4.7s" x="712.4" y="130" font-size="12" fill="#101c26" font-family="monospace">pour-over</text><text class="tok" style="--d:4.9s" x="784.4" y="130" font-size="12" fill="#101c26" font-family="monospace">set</text><text class="tok" style="--d:5.1s" x="813.2" y="130" font-size="12" fill="#101c26" font-family="monospace">and</text><text class="tok" style="--d:5.3s" x="842" y="130" font-size="12" fill="#101c26" font-family="monospace">a</text><text class="tok" style="--d:5.5s" x="698" y="148" font-size="12" fill="#101c26" font-family="monospace">grinder,</text><text class="tok" style="--d:5.7s" x="762.8" y="148" font-size="12" fill="#101c26" font-family="monospace">both</text><text class="tok" style="--d:5.9s" x="798.8" y="148" font-size="12" fill="#101c26" font-family="monospace">under</text><text class="tok" style="--d:6.1s" x="698" y="166" font-size="12" fill="#101c26" font-family="monospace">budget.</text><g class="in" style="--d:3.9s"><circle cx="701" cy="209" r="3" fill="#1f9d6a"/><text x="712" y="213" font-size="11" font-weight="400" fill="#566573" text-anchor="start" font-family="ui-monospace,SFMono-Regular,'SF Mono',Menlo,Consolas,monospace">4 chunks retrieved</text></g><g class="in" style="--d:6.3s"><rect class="blink" x="751.4" y="155" width="6" height="13" rx="1" fill="#d99a00"/></g></g><g class="scn scn-b" style="--s:10s"><g class="in" style="--d:10.3s"><rect x="470" y="34" width="230" height="28" rx="6" fill="#eef2f5" stroke="#d3dde4"/><text x="484" y="52.5" font-size="12" font-weight="400" fill="#101c26" text-anchor="start" font-family="ui-monospace,SFMono-Regular,'SF Mono',Menlo,Consolas,monospace">what changed in AI this week</text></g><path class="draw" pathLength="1" style="--d:10.9s" d="M488 62 C488 160 612 150 612 183" fill="none" stroke="#2f55d4" stroke-width="1.5"/><g class="in" style="--d:11.6s"><circle class="ring" cx="612" cy="190" r="5" fill="none" stroke="#2f55d4" stroke-width="1.5"/><circle cx="612" cy="190" r="5" fill="#2f55d4"/></g><line class="hit-line draw" pathLength="1" style="--d:12s" x1="612" y1="190" x2="599.7" y2="189.8" stroke="#1f9d6a" stroke-width="1.5"/><circle class="in" style="--d:12.5s" cx="599.7" cy="189.8" r="4.4" fill="#1f9d6a"/><line class="hit-line draw" pathLength="1" style="--d:12.2s" x1="612" y1="190" x2="608.6" y2="205.2" stroke="#1f9d6a" stroke-width="1.5"/><circle class="in" style="--d:12.7s" cx="608.6" cy="205.2" r="4.4" fill="#1f9d6a"/><line class="hit-line draw" pathLength="1" style="--d:12.3s" x1="612" y1="190" x2="629.6" y2="191.5" stroke="#1f9d6a" stroke-width="1.5"/><circle class="in" style="--d:12.8s" cx="629.6" cy="191.5" r="4.4" fill="#1f9d6a"/><line class="hit-line draw" pathLength="1" style="--d:12.4s" x1="612" y1="190" x2="616.3" y2="214.6" stroke="#1f9d6a" stroke-width="1.5"/><circle class="in" style="--d:12.9s" cx="616.3" cy="214.6" r="4.4" fill="#1f9d6a"/><line class="draw" pathLength="1" style="--d:13.3s" x1="662" y1="156" x2="686" y2="156" stroke="#1f9d6a" stroke-width="1.5"/><g class="in" style="--d:13.4s"><rect x="686" y="86" width="180" height="140" rx="10" fill="#eef2f5" stroke="#d3dde4"/></g><text class="tok" style="--d:13.9s" x="698" y="112" font-size="12" fill="#101c26" font-family="monospace">Found</text><text class="tok" style="--d:14.1s" x="741.2" y="112" font-size="12" fill="#101c26" font-family="monospace">3</text><text class="tok" style="--d:14.3s" x="755.6" y="112" font-size="12" fill="#101c26" font-family="monospace">matching</text><text class="tok" style="--d:14.5s" x="698" y="130" font-size="12" fill="#101c26" font-family="monospace">articles,</text><text class="tok" style="--d:14.7s" x="770" y="130" font-size="12" fill="#101c26" font-family="monospace">grouped</text><text class="tok" style="--d:14.9s" x="827.6" y="130" font-size="12" fill="#101c26" font-family="monospace">by</text><text class="tok" style="--d:15.1s" x="698" y="148" font-size="12" fill="#101c26" font-family="monospace">topic</text><text class="tok" style="--d:15.3s" x="741.2" y="148" font-size="12" fill="#101c26" font-family="monospace">for</text><text class="tok" style="--d:15.5s" x="770" y="148" font-size="12" fill="#101c26" font-family="monospace">the</text><text class="tok" style="--d:15.7s" x="798.8" y="148" font-size="12" fill="#101c26" font-family="monospace">weekly</text><text class="tok" style="--d:15.9s" x="698" y="166" font-size="12" fill="#101c26" font-family="monospace">report.</text><g class="in" style="--d:13.9s"><circle cx="701" cy="209" r="3" fill="#1f9d6a"/><text x="712" y="213" font-size="11" font-weight="400" fill="#566573" text-anchor="start" font-family="ui-monospace,SFMono-Regular,'SF Mono',Menlo,Consolas,monospace">4 chunks retrieved</text></g><g class="in" style="--d:16.1s"><rect class="blink" x="751.4" y="155" width="6" height="13" rx="1" fill="#d99a00"/></g></g><text x="866" y="248" font-size="11" font-weight="400" fill="#566573" text-anchor="end">illustration of a RAG flow</text><text x="40" y="58" font-size="13" font-weight="400" fill="#566573" text-anchor="start" font-family="ui-monospace,SFMono-Regular,'SF Mono',Menlo,Consolas,monospace">@nhatminh280, PTIT, Vietnam</text><text x="40" y="118" font-size="46" font-weight="800" fill="#101c26" text-anchor="start">Nhat Minh</text><text x="40" y="160" font-size="28" font-weight="700" fill="#2f55d4" text-anchor="start">AI Engineer</text><rect x="40" y="180" width="343" height="30" rx="6" fill="#eef2f5" stroke="#d3dde4"/><circle class="pulse" cx="58" cy="195" r="4.5" fill="#1f9d6a"/><text x="70" y="200" font-size="13" font-weight="600" fill="#101c26" text-anchor="start">Open to opportunities as an AI Engineer</text><text x="40" y="236" font-size="14" font-weight="400" fill="#566573" text-anchor="start">LLM &amp; RAG, computer vision, ML on small devices</text></svg>