<svg xmlns="http://www.w3.org/2000/svg" width="900" height="132" viewBox="0 0 900 132" role="img" aria-label="Languages" font-family="-apple-system,BlinkMacSystemFont,'Segoe UI',Roboto,Helvetica,Arial,sans-serif"><title>Languages</title><desc>Jupyter Notebook 39.8%, Python 39.0%, C++ 18.7%, JavaScript 1.9%, HTML 0.4%, Shell 0.1%, Other 0.1%</desc><rect x="0.5" y="0.5" width="899" height="131" rx="10" fill="#fbfcfd" stroke="#d3dde4"/><text x="28" y="30" font-size="13" font-weight="600" fill="#566573" text-anchor="start">Languages across public repos, by bytes</text><clipPath id="bar"><rect x="28" y="44" width="844" height="12" rx="6"/></clipPath><g clip-path="url(#bar)"><rect x="28.00" y="44" width="335.96" height="12" fill="#da5b0b"/><rect x="363.96" y="44" width="328.90" height="12" fill="#3572a5"/><rect x="692.86" y="44" width="157.86" height="12" fill="#f34b7d"/><rect x="850.72" y="44" width="16.15" height="12" fill="#f1e05a"/><rect x="866.86" y="44" width="3.73" height="12" fill="#e34c26"/><rect x="870.59" y="44" width="0.86" height="12" fill="#89e051"/><rect x="871.45" y="44" width="0.55" height="12" fill="#8a94a6"/></g><circle cx="33" cy="80" r="5" fill="#da5b0b"/><text x="44" y="84" font-size="13" font-weight="400" fill="#101c26" text-anchor="start">Jupyter Notebook 39.8%</text><circle cx="234.6" cy="80" r="5" fill="#3572a5"/><text x="245.6" y="84" font-size="13" font-weight="400" fill="#101c26" text-anchor="start">Python 39.0%</text><circle cx="358.2" cy="80" r="5" fill="#f34b7d"/><text x="369.2" y="84" font-size="13" font-weight="400" fill="#101c26" text-anchor="start">C++ 18.7%</text><circle cx="458.4" cy="80" r="5" fill="#f1e05a"/><text x="469.4" y="84" font-size="13" font-weight="400" fill="#101c26" text-anchor="start">JavaScript 1.9%</text><circle cx="605.4" cy="80" r="5" fill="#e34c26"/><text x="616.4" y="84" font-size="13" font-weight="400" fill="#101c26" text-anchor="start">HTML 0.4%</text><circle cx="705.6" cy="80" r="5" fill="#89e051"/><text x="716.6" y="84" font-size="13" font-weight="400" fill="#101c26" text-anchor="start">Shell 0.1%</text><circle cx="33" cy="102" r="5" fill="#8a94a6"/><text x="44" y="106" font-size="13" font-weight="400" fill="#101c26" text-anchor="start">Other 0.1%</text></svg>